<svg width="39" height="43" viewBox="0 0 39 43" fill="none" xmlns="http://www.w3.org/2000/svg">
<path d="M35.1074 16.07L9.4238 1.21663C4.48818 -1.62972 0.449097 0.688007 0.449097 6.40329V36.1034C0.449097 41.7961 4.48818 44.1364 9.4238 41.29L35.1074 26.4141C40.0417 23.5677 40.0417 18.9084 35.1074 16.0634V16.07ZM21.0137 29.5619H6.64652C6.15335 29.5619 5.68038 29.366 5.33166 29.0173C4.98294 28.6686 4.78703 28.1956 4.78703 27.7024C4.78703 27.2093 4.98294 26.7363 5.33166 26.3876C5.68038 26.0389 6.15335 25.843 6.64652 25.843H21.0137C21.5069 25.843 21.9799 26.0389 22.3286 26.3876C22.6773 26.7363 22.8732 27.2093 22.8732 27.7024C22.8732 28.1956 22.6773 28.6686 22.3286 29.0173C21.9799 29.366 21.5069 29.5619 21.0137 29.5619ZM4.8096 21.3908C4.80855 21.1463 4.85593 20.904 4.949 20.678C5.04208 20.4519 5.17901 20.2465 5.35189 20.0736C5.52477 19.9007 5.73017 19.7638 5.95625 19.6707C6.18233 19.5776 6.42461 19.5303 6.6691 19.5313H9.46896C9.96213 19.5313 10.4351 19.7272 10.7838 20.0759C11.1325 20.4247 11.3285 20.8976 11.3285 21.3908C11.3285 21.884 11.1325 22.3569 10.7838 22.7057C10.4351 23.0544 9.96213 23.2503 9.46896 23.2503H6.6691C6.42461 23.2513 6.18233 23.204 5.95625 23.1109C5.73017 23.0178 5.52477 22.8809 5.35189 22.708C5.17901 22.5351 5.04208 22.3297 4.949 22.1036C4.85593 21.8776 4.80855 21.6353 4.8096 21.3908ZM13.2105 21.4599C13.2095 21.2154 13.2568 20.9731 13.3499 20.747C13.443 20.5209 13.5799 20.3155 13.7528 20.1427C13.9257 19.9698 14.1311 19.8328 14.3572 19.7398C14.5833 19.6467 14.8255 19.5993 15.07 19.6004H20.8079C21.0956 19.6037 21.3788 19.6714 21.6369 19.7985C21.895 19.9256 22.1214 20.1089 22.2995 20.3349C22.5466 20.6584 22.6835 21.0528 22.6899 21.4599C22.6899 21.5741 22.6674 21.6896 22.6674 21.8039C22.5894 22.2344 22.3631 22.624 22.0278 22.9049C21.6925 23.1859 21.2693 23.3405 20.8318 23.3419H15.0939C14.5967 23.3357 14.1216 23.1355 13.77 22.7838C13.4183 22.4322 13.2181 21.9571 13.2119 21.4599H13.2105ZM21.0151 16.6398H6.64652C6.15335 16.6398 5.68038 16.4439 5.33166 16.0952C4.98294 15.7464 4.78703 15.2735 4.78703 14.7803C4.78703 14.2871 4.98294 13.8142 5.33166 13.4654C5.68038 13.1167 6.15335 12.9208 6.64652 12.9208H21.0137C21.5069 12.9208 21.9799 13.1167 22.3286 13.4654C22.6773 13.8142 22.8732 14.2871 22.8732 14.7803C22.8732 15.2735 22.6773 15.7464 22.3286 16.0952C21.9799 16.4439 21.5069 16.6398 21.0137 16.6398" fill="#00DDD2"/>
</svg>
